<svg width="40" height="40" viewBox="0 0 40 40" fill="none" xmlns="http://www.w3.org/2000/svg">
<path d="M19.9794 5.00384C15.9719 5.06944 12.1511 6.70954 9.34314 9.56957C7.93814 10.9684 6.8296 12.6361 6.08377 14.4731C5.33795 16.3101 4.97016 18.2785 5.00238 20.2609C5.00007 22.1979 5.38004 24.1163 6.1205 25.9062C6.86097 27.6961 7.94737 29.3223 9.31746 30.6916C10.6875 32.0608 12.3144 33.1463 14.1047 33.8857C15.895 34.6251 17.8137 35.0039 19.7507 35.0005H20.0182C24.0269 34.9592 27.8556 33.3294 30.6642 30.4686C33.4727 27.6078 35.0317 23.7498 34.999 19.7409C35.0036 17.7804 34.6162 15.8388 33.8594 14.0302C33.1027 12.2216 31.992 10.5826 30.5926 9.20949C29.1932 7.83642 27.5334 6.75702 25.7108 6.03477C23.8882 5.31252 21.9395 4.96201 19.9794 5.00384ZM18.1259 25.679C18.1169 25.4339 18.1568 25.1895 18.2434 24.9601C18.3299 24.7306 18.4614 24.5208 18.63 24.3427C18.7986 24.1647 19.0011 24.022 19.2255 23.9231C19.4499 23.8242 19.6918 23.771 19.9369 23.7667H19.9707C20.4639 23.7677 20.9376 23.9595 21.2925 24.302C21.6473 24.6446 21.8558 25.1112 21.8742 25.604C21.8834 25.8491 21.8436 26.0936 21.7571 26.3231C21.6706 26.5527 21.5392 26.7626 21.3705 26.9407C21.2018 27.1188 20.9993 27.2614 20.7749 27.3603C20.5504 27.4591 20.3084 27.5122 20.0632 27.5163H20.0294C19.5364 27.5147 19.0631 27.3227 18.7083 26.9803C18.3536 26.6379 18.1449 26.1717 18.1259 25.679ZM18.7508 20.6271V13.1279C18.7508 12.7964 18.8825 12.4785 19.1169 12.2441C19.3513 12.0097 19.6692 11.8781 20.0007 11.8781C20.3322 11.8781 20.6501 12.0097 20.8845 12.2441C21.1189 12.4785 21.2505 12.7964 21.2505 13.1279V20.6271C21.2505 20.9586 21.1189 21.2765 20.8845 21.5109C20.6501 21.7453 20.3322 21.8769 20.0007 21.8769C19.6692 21.8769 19.3513 21.7453 19.1169 21.5109C18.8825 21.2765 18.7508 20.9586 18.7508 20.6271Z" fill="#ECECEC"/>
</svg>
