<?xml version="1.0" encoding="UTF-8" standalone="no"?>
<!DOCTYPE svg PUBLIC "-//W3C//DTD SVG 1.1//EN" "http://www.w3.org/Graphics/SVG/1.1/DTD/svg11.dtd">
<svg version="1.1" xmlns="http://www.w3.org/2000/svg" xmlns:xlink="http://www.w3.org/1999/xlink" preserveAspectRatio="xMidYMid meet" viewBox="0 0 640 548.56" width="640" height="548.56"><defs><path d="M626.59 306.61C644.47 288.73 644.47 259.8 626.59 241.97C603.74 219.11 420.89 36.26 398.03 13.41C380.16 -4.47 351.22 -4.47 333.39 13.41C315.57 31.28 315.52 60.21 333.39 78.04C346.48 91.13 411.89 156.54 529.64 274.29C411.89 392.04 346.48 457.45 333.39 470.53C315.52 488.41 315.52 517.34 333.39 535.17C351.27 553 380.2 553.05 398.03 535.17C443.74 489.46 603.74 329.46 626.59 306.61ZM306.61 306.61C324.48 288.73 324.48 259.8 306.61 241.97C283.75 219.11 100.9 36.26 78.04 13.41C60.17 -4.47 31.23 -4.47 13.41 13.41C-4.42 31.28 -4.47 60.21 13.41 78.04C26.49 91.13 91.9 156.54 209.65 274.29C91.9 392.04 26.49 457.45 13.41 470.53C-4.47 488.41 -4.47 517.34 13.41 535.17C31.28 553 60.21 553.05 78.04 535.17C123.75 489.46 283.75 329.46 306.61 306.61Z" id="a3ffP1Syd"></path></defs><g><g><g><use xlink:href="#a3ffP1Syd" opacity="1" fill="#cbcbcb" fill-opacity="1"></use><g><use xlink:href="#a3ffP1Syd" opacity="1" fill-opacity="0" stroke="#000000" stroke-width="1" stroke-opacity="0"></use></g></g></g></g></svg>