<?xml version="1.0" encoding="UTF-8" standalone="no"?>
<!DOCTYPE svg PUBLIC "-//W3C//DTD SVG 1.1//EN" "http://www.w3.org/Graphics/SVG/1.1/DTD/svg11.dtd">
<svg version="1.1" xmlns="http://www.w3.org/2000/svg" xmlns:xlink="http://www.w3.org/1999/xlink" preserveAspectRatio="xMidYMid meet" viewBox="0 0 640 548.56" width="640" height="548.56"><defs><path d="M110.36 274.27C228.11 156.52 293.52 91.11 306.61 78.03C324.48 60.15 324.48 31.22 306.61 13.39C288.73 -4.44 259.8 -4.49 241.97 13.39C219.11 36.24 36.26 219.1 13.41 241.95C-4.47 259.83 -4.47 288.76 13.41 306.59C36.26 329.45 219.11 512.3 241.97 535.15C259.84 553.03 288.78 553.03 306.61 535.15C324.44 517.28 324.48 488.35 306.61 470.52C280.44 444.35 215.03 378.94 110.36 274.27ZM430.35 274.27C548.1 156.52 613.51 91.11 626.6 78.03C644.47 60.15 644.47 31.22 626.6 13.39C608.72 -4.44 579.79 -4.49 561.96 13.39C539.1 36.24 356.25 219.1 333.39 241.95C315.52 259.83 315.52 288.76 333.39 306.59C356.25 329.45 539.1 512.3 561.96 535.15C579.83 553.03 608.77 553.03 626.6 535.15C644.42 517.28 644.47 488.35 626.6 470.52C600.43 444.35 535.01 378.94 430.35 274.27Z" id="c6XGP8MxTx"></path></defs><g><g><g><use xlink:href="#c6XGP8MxTx" opacity="1" fill="#cbcbcb" fill-opacity="1"></use><g><use xlink:href="#c6XGP8MxTx" opacity="1" fill-opacity="0" stroke="#000000" stroke-width="1" stroke-opacity="0"></use></g></g></g></g></svg>