<svg width="24" height="24" viewBox="0 0 24 24" fill="none" xmlns="http://www.w3.org/2000/svg">
<g id="cameraswitch">
<mask id="mask0_2288_4475" style="mask-type:alpha" maskUnits="userSpaceOnUse" x="0" y="0" width="24" height="24">
<rect id="Bounding box" width="24" height="24" fill="#D9D9D9"/>
</mask>
<g mask="url(#mask0_2288_4475)">
<path id="cameraswitch_2" d="M8.30775 16.5C7.80908 16.5 7.38308 16.3234 7.02975 15.9703C6.67658 15.6169 6.5 15.1909 6.5 14.6923V9.30775C6.5 8.80908 6.67658 8.38308 7.02975 8.02975C7.38308 7.67658 7.80908 7.5 8.30775 7.5H9.19225L9.92125 6.77125C10.0148 6.67758 10.116 6.609 10.225 6.5655C10.334 6.52183 10.4488 6.5 10.5693 6.5H13.4307C13.5512 6.5 13.666 6.52183 13.775 6.5655C13.884 6.609 13.9852 6.67758 14.0787 6.77125L14.8077 7.5H15.6922C16.1909 7.5 16.6169 7.67658 16.9702 8.02975C17.3234 8.38308 17.5 8.80908 17.5 9.30775V14.6923C17.5 15.1909 17.3234 15.6169 16.9702 15.9703C16.6169 16.3234 16.1909 16.5 15.6922 16.5H8.30775ZM8.30775 15H15.6922C15.7821 15 15.8558 14.9712 15.9135 14.9135C15.9712 14.8558 16 14.7821 16 14.6923V9.30775C16 9.21792 15.9712 9.14417 15.9135 9.0865C15.8558 9.02883 15.7821 9 15.6922 9H8.30775C8.21792 9 8.14417 9.02883 8.0865 9.0865C8.02883 9.14417 8 9.21792 8 9.30775V14.6923C8 14.7821 8.02883 14.8558 8.0865 14.9135C8.14417 14.9712 8.21792 15 8.30775 15ZM12 13.7115C12.473 13.7115 12.8765 13.5445 13.2105 13.2105C13.5445 12.8765 13.7115 12.473 13.7115 12C13.7115 11.527 13.5445 11.1235 13.2105 10.7895C12.8765 10.4555 12.473 10.2885 12 10.2885C11.527 10.2885 11.1235 10.4555 10.7895 10.7895C10.4555 11.1235 10.2885 11.527 10.2885 12C10.2885 12.473 10.4555 12.8765 10.7895 13.2105C11.1235 13.5445 11.527 13.7115 12 13.7115ZM12.0192 23.5C9.18208 23.5 6.69617 22.6016 4.5615 20.8048C2.427 19.0079 1.11867 16.7416 0.6365 14.0057C0.593 13.7801 0.629583 13.5747 0.74625 13.3895C0.862916 13.2042 1.03083 13.0981 1.25 13.0712C1.46917 13.0442 1.65825 13.1023 1.81725 13.2452C1.97625 13.3881 2.07433 13.5692 2.1115 13.7885C2.51917 16.0808 3.59033 17.9892 5.325 19.5135C7.05967 21.0378 9.1065 21.8564 11.4655 21.9693L10.25 20.7538C10.1115 20.6154 10.0407 20.4414 10.0375 20.2318C10.0343 20.0221 10.1052 19.8448 10.25 19.7C10.3948 19.5552 10.5705 19.4827 10.777 19.4827C10.9833 19.4827 11.1589 19.5552 11.3038 19.7L14.3635 22.7595C14.4545 22.8507 14.4823 22.9536 14.447 23.0683C14.4118 23.1829 14.3352 23.2537 14.2172 23.2808C13.8571 23.3654 13.4959 23.4231 13.1337 23.4538C12.7714 23.4846 12.3999 23.5 12.0192 23.5ZM11.9808 0.5C14.8179 0.5 17.3038 1.39742 19.4385 3.19225C21.573 4.98725 22.8813 7.25775 23.3635 10.0038C23.407 10.2294 23.3704 10.4333 23.2537 10.6155C23.1371 10.7975 22.9692 10.9019 22.75 10.9288C22.5308 10.9558 22.3417 10.8977 22.1827 10.7548C22.0237 10.6119 21.9257 10.4308 21.8885 10.2115C21.4808 7.91917 20.4097 6.01083 18.675 4.4865C16.9403 2.96217 14.8935 2.14358 12.5345 2.03075L13.75 3.24625C13.8885 3.38458 13.9593 3.55858 13.9625 3.76825C13.9657 3.97792 13.8948 4.15517 13.75 4.3C13.6052 4.44483 13.4295 4.51725 13.223 4.51725C13.0167 4.51725 12.8411 4.44483 12.6962 4.3L9.6365 1.2405C9.5455 1.14933 9.51767 1.04642 9.553 0.931751C9.58817 0.817084 9.66475 0.74625 9.78275 0.71925C10.1429 0.634584 10.5041 0.576916 10.8663 0.546249C11.2286 0.515416 11.6001 0.5 11.9808 0.5Z" fill="#67738B"/>
</g>
</g>
</svg>
