<svg width="24" height="24" viewBox="0 0 24 24" fill="none" xmlns="http://www.w3.org/2000/svg">
<g id="cancel">
<mask id="mask0_2264_10263" style="mask-type:alpha" maskUnits="userSpaceOnUse" x="0" y="0" width="24" height="24">
<rect id="Bounding box" width="24" height="24" fill="#D9D9D9"/>
</mask>
<g mask="url(#mask0_2264_10263)">
<path id="cancel_2" d="M12 13.0538L15.0731 16.1269C15.2115 16.2653 15.3856 16.3362 15.5952 16.3394C15.8048 16.3426 15.982 16.2718 16.1269 16.1269C16.2718 15.982 16.3442 15.8064 16.3442 15.6C16.3442 15.3936 16.2718 15.2179 16.1269 15.0731L13.0538 12L16.1269 8.92688C16.2653 8.78843 16.3362 8.61439 16.3394 8.40478C16.3426 8.19518 16.2718 8.01794 16.1269 7.87308C15.982 7.72819 15.8064 7.65575 15.6 7.65575C15.3936 7.65575 15.2179 7.72819 15.0731 7.87308L12 10.9462L8.92688 7.87308C8.78842 7.73461 8.61439 7.66378 8.40478 7.66058C8.19518 7.65736 8.01794 7.72819 7.87308 7.87308C7.72819 8.01794 7.65575 8.19358 7.65575 8.39998C7.65575 8.60638 7.72819 8.78201 7.87308 8.92688L10.9461 12L7.87308 15.0731C7.73461 15.2115 7.66378 15.3856 7.66058 15.5952C7.65736 15.8048 7.72819 15.982 7.87308 16.1269C8.01794 16.2718 8.19358 16.3442 8.39998 16.3442C8.60638 16.3442 8.78201 16.2718 8.92688 16.1269L12 13.0538ZM12.0016 21.5C10.6877 21.5 9.45268 21.2506 8.29655 20.752C7.1404 20.2533 6.13472 19.5765 5.2795 18.7217C4.42427 17.8669 3.74721 16.8616 3.24833 15.706C2.74944 14.5504 2.5 13.3156 2.5 12.0017C2.5 10.6877 2.74933 9.45268 3.248 8.29655C3.74667 7.1404 4.42342 6.13472 5.27825 5.2795C6.1331 4.42427 7.13834 3.74721 8.29398 3.24833C9.44959 2.74944 10.6844 2.5 11.9983 2.5C13.3122 2.5 14.5473 2.74933 15.7034 3.248C16.8596 3.74667 17.8652 4.42342 18.7205 5.27825C19.5757 6.1331 20.2527 7.13834 20.7516 8.29398C21.2505 9.44959 21.5 10.6844 21.5 11.9983C21.5 13.3122 21.2506 14.5473 20.752 15.7034C20.2533 16.8596 19.5765 17.8652 18.7217 18.7205C17.8669 19.5757 16.8616 20.2527 15.706 20.7516C14.5504 21.2505 13.3156 21.5 12.0016 21.5ZM12 20C14.2333 20 16.125 19.225 17.675 17.675C19.225 16.125 20 14.2333 20 12C20 9.76664 19.225 7.87498 17.675 6.32498C16.125 4.77498 14.2333 3.99998 12 3.99998C9.76664 3.99998 7.87498 4.77498 6.32498 6.32498C4.77498 7.87498 3.99998 9.76664 3.99998 12C3.99998 14.2333 4.77498 16.125 6.32498 17.675C7.87498 19.225 9.76664 20 12 20Z" fill="#E53E3E"/>
</g>
</g>
</svg>
