<!-- Generated by IcoMoon.io -->
<svg version="1.1" xmlns="http://www.w3.org/2000/svg" width="500" height="500" viewBox="0 0 500 500">
<title>chevrons-up</title>
<path fill="#c2c2c2" d="M368.896 214.438l-104.167-104.167c-8.146-8.146-21.333-8.146-29.458 0l-104.167 104.167c-8.146 8.146-8.146 21.333 0 29.458s21.333 8.146 29.458 0l89.438-89.438 89.438 89.438c8.146 8.146 21.333 8.146 29.458 0s8.146-21.333 0-29.458zM368.896 360.271l-104.167-104.167c-8.146-8.146-21.333-8.146-29.458 0l-104.167 104.167c-8.146 8.146-8.146 21.333 0 29.458s21.333 8.146 29.458 0l89.438-89.438 89.438 89.438c8.146 8.146 21.333 8.146 29.458 0s8.146-21.333 0-29.458z"></path>
</svg>
