<svg width="24" height="24" viewBox="0 0 24 24" fill="none" xmlns="http://www.w3.org/2000/svg">
<g id="mic">
<mask id="mask0_2264_10181" style="mask-type:alpha" maskUnits="userSpaceOnUse" x="0" y="0" width="24" height="24">
<rect id="Bounding box" width="24" height="24" fill="#D9D9D9"/>
</mask>
<g mask="url(#mask0_2264_10181)">
<path id="mic_2" d="M12 13.5C11.3013 13.5 10.71 13.258 10.226 12.774C9.74198 12.29 9.49998 11.6987 9.49998 11V5C9.49998 4.30133 9.74198 3.71 10.226 3.226C10.71 2.742 11.3013 2.5 12 2.5C12.6986 2.5 13.29 2.742 13.774 3.226C14.258 3.71 14.5 4.30133 14.5 5V11C14.5 11.6987 14.258 12.29 13.774 12.774C13.29 13.258 12.6986 13.5 12 13.5ZM11.25 20V17.4538C9.76148 17.2819 8.48582 16.6704 7.42298 15.6193C6.36032 14.5679 5.7379 13.2865 5.55573 11.775C5.5289 11.5622 5.58465 11.3798 5.72298 11.228C5.86148 11.076 6.03715 11 6.24998 11C6.46282 11 6.64098 11.0734 6.78448 11.2203C6.92815 11.3669 7.02373 11.5467 7.07123 11.7595C7.25323 12.984 7.81315 13.9968 8.75098 14.798C9.68882 15.5993 10.7718 16 12 16C13.2448 16 14.332 15.5952 15.2615 14.7855C16.191 13.976 16.7467 12.9673 16.9287 11.7595C16.9762 11.5467 17.0718 11.3669 17.2155 11.2203C17.359 11.0734 17.5372 11 17.75 11C17.9628 11 18.1385 11.076 18.277 11.228C18.4153 11.3798 18.4711 11.5622 18.4442 11.775C18.2621 13.2532 17.6438 14.5247 16.5895 15.5895C15.535 16.6542 14.2551 17.2756 12.75 17.4538V20C12.75 20.2128 12.6782 20.391 12.5345 20.5345C12.391 20.6782 12.2128 20.75 12 20.75C11.7871 20.75 11.609 20.6782 11.4655 20.5345C11.3218 20.391 11.25 20.2128 11.25 20ZM12 12C12.2833 12 12.5208 11.9042 12.7125 11.7125C12.9042 11.5208 13 11.2833 13 11V5C13 4.71667 12.9042 4.47917 12.7125 4.2875C12.5208 4.09583 12.2833 4 12 4C11.7167 4 11.4792 4.09583 11.2875 4.2875C11.0958 4.47917 11 4.71667 11 5V11C11 11.2833 11.0958 11.5208 11.2875 11.7125C11.4792 11.9042 11.7167 12 12 12Z" fill="#67738B"/>
</g>
</g>
</svg>
