<svg width="14" height="14" viewBox="0 0 14 14" fill="none" xmlns="http://www.w3.org/2000/svg">
<mask id="mask0_2084_10" style="mask-type:alpha" maskUnits="userSpaceOnUse" x="0" y="0" width="14" height="14">
<rect width="14" height="14" fill="#D9D9D9"/>
</mask>
<g mask="url(#mask0_2084_10)">
<path d="M6.05268 10.3879C5.79358 10.3879 5.57313 10.2962 5.39133 10.113C5.20962 9.92981 5.11876 9.70882 5.11876 9.45001V8.27095C4.59075 7.93447 4.17926 7.50129 3.88429 6.97143C3.58922 6.44157 3.44168 5.86961 3.44168 5.25556C3.44168 4.26535 3.78687 3.42384 4.47724 2.73104C5.16762 2.03813 6.00747 1.69168 6.99681 1.69168C7.98614 1.69168 8.82706 2.03716 9.51958 2.72812C10.2121 3.41917 10.5583 4.25981 10.5583 5.25001C10.5583 5.86601 10.4108 6.44104 10.1157 6.97508C9.82077 7.50922 9.40928 7.94117 8.88126 8.27095V9.45001C8.88126 9.70882 8.78954 9.92981 8.60608 10.113C8.42262 10.2962 8.20129 10.3879 7.9421 10.3879H6.05268ZM6.05662 9.62954H7.94341C7.99581 9.62954 8.03883 9.61272 8.07247 9.57908C8.10611 9.54544 8.12293 9.50242 8.12293 9.45001V8.1117C8.12293 8.02887 8.14053 7.95338 8.17572 7.88522C8.21082 7.81707 8.26351 7.76088 8.33381 7.71664L8.53126 7.59079C8.92618 7.33908 9.23637 7.00424 9.46183 6.58629C9.68728 6.16833 9.80001 5.7229 9.80001 5.25001C9.80001 4.47535 9.52667 3.81501 8.97999 3.26901C8.43341 2.72301 7.7723 2.45001 6.99666 2.45001C6.22112 2.45001 5.56113 2.72301 5.01668 3.26901C4.47224 3.81501 4.20001 4.47535 4.20001 5.25001C4.20001 5.7229 4.31274 6.16833 4.5382 6.58629C4.76366 7.00424 5.07385 7.33908 5.46876 7.59079L5.66622 7.71664C5.73651 7.76088 5.78921 7.81707 5.82431 7.88522C5.8595 7.95338 5.8771 8.02887 5.8771 8.1117V9.45001C5.8771 9.50242 5.89392 9.54544 5.92756 9.57908C5.96119 9.61272 6.00422 9.62954 6.05662 9.62954ZM5.82547 12.3083C5.71785 12.3083 5.62777 12.2723 5.55524 12.2003C5.48262 12.1283 5.44631 12.039 5.44631 11.9322C5.44631 11.8255 5.48262 11.7351 5.55524 11.6611C5.62777 11.5871 5.71785 11.55 5.82547 11.55H8.17456C8.28218 11.55 8.37226 11.586 8.44479 11.6579C8.51741 11.73 8.55372 11.8194 8.55372 11.9261C8.55372 12.0329 8.51741 12.1232 8.44479 12.1972C8.37226 12.2713 8.28218 12.3083 8.17456 12.3083H5.82547Z" fill="currentColor"/>
</g>
</svg>
