<svg width="14" height="14" viewBox="0 0 14 14" fill="none" xmlns="http://www.w3.org/2000/svg">
<mask id="mask0_2084_19" style="mask-type:alpha" maskUnits="userSpaceOnUse" x="0" y="0" width="14" height="14">
<rect width="14" height="14" fill="#D9D9D9"/>
</mask>
<g mask="url(#mask0_2084_19)">
<path d="M9.38382 7.21874L8.0668 9.36467C8.03092 9.43798 7.97147 9.46622 7.88844 9.4494C7.80551 9.43258 7.75505 9.38456 7.73707 9.30532L7.24794 7.30288L3.19378 11.3626C3.11522 11.4411 3.02602 11.4804 2.92617 11.4804C2.82642 11.4804 2.73615 11.44 2.65536 11.3592C2.57087 11.2748 2.52863 11.1845 2.52863 11.0884C2.52863 10.9923 2.56976 10.9033 2.65201 10.8214L6.71171 6.76665L4.71496 6.27753C4.64545 6.25954 4.59888 6.21001 4.57526 6.12892C4.55173 6.04774 4.57662 5.98922 4.64992 5.95334L6.78128 4.63078L6.59738 2.12245C6.59135 2.04321 6.62407 1.98429 6.69553 1.9457C6.76689 1.9072 6.83324 1.91561 6.89459 1.97093L8.80719 3.58865L11.117 2.64861C11.1866 2.61488 11.2505 2.62718 11.3088 2.68551C11.3672 2.74384 11.3795 2.80781 11.3459 2.87742L10.4114 5.20172L12.0291 7.10542C12.0844 7.16677 12.0937 7.2341 12.0571 7.3074C12.0204 7.38061 11.9625 7.41425 11.8833 7.40832L9.38382 7.21874ZM2.56815 3.88615C2.52081 3.83881 2.49713 3.77999 2.49713 3.7097C2.49713 3.6394 2.52081 3.58063 2.56815 3.53338L3.05771 3.04368C3.10506 2.99643 3.16388 2.9728 3.23417 2.9728C3.30446 2.9728 3.36328 2.99643 3.41063 3.04368L3.90019 3.53338C3.94754 3.58063 3.97121 3.6394 3.97121 3.7097C3.97121 3.77999 3.94754 3.83881 3.90019 3.88615L3.41063 4.37586C3.36328 4.42311 3.30446 4.44674 3.23417 4.44674C3.16388 4.44674 3.10506 4.42311 3.05771 4.37586L2.56815 3.88615ZM8.12294 7.77859L8.97213 6.43343L10.555 6.55242L9.53301 5.33792L10.1273 3.86224L8.66311 4.46249L7.44759 3.43932L7.56659 5.02788L6.21253 5.86263L7.75121 6.24107L8.12294 7.77859ZM10.1139 11.4319L9.62415 10.9423C9.5769 10.895 9.55328 10.8361 9.55328 10.7658C9.55328 10.6955 9.5769 10.6367 9.62415 10.5894L10.1139 10.0998C10.1612 10.0525 10.22 10.0288 10.2903 10.0288C10.3606 10.0288 10.4194 10.0525 10.4666 10.0998L10.9563 10.5894C11.0036 10.6367 11.0272 10.6955 11.0272 10.7658C11.0272 10.8361 11.0036 10.895 10.9563 10.9423L10.4666 11.4319C10.4194 11.4792 10.3606 11.5029 10.2903 11.5029C10.22 11.5029 10.1612 11.4792 10.1139 11.4319Z" fill="currentColor"/>
</g>
</svg>
