<svg width="14" height="14" viewBox="0 0 14 14" fill="none" xmlns="http://www.w3.org/2000/svg">
<mask id="mask0_2084_28" style="mask-type:alpha" maskUnits="userSpaceOnUse" x="0" y="0" width="14" height="14">
<rect width="14" height="14" fill="#D9D9D9"/>
</mask>
<g mask="url(#mask0_2084_28)">
<path d="M2.6295 10.3542C2.37157 10.3542 2.15078 10.2624 1.96713 10.0787C1.78348 9.89505 1.69165 9.67426 1.69165 9.41633V2.62954C1.69165 2.3716 1.78348 2.15081 1.96713 1.96716C2.15078 1.78351 2.37157 1.69168 2.6295 1.69168H11.3705C11.6284 1.69168 11.8492 1.78351 12.0328 1.96716C12.2165 2.15081 12.3083 2.3716 12.3083 2.62954V9.41633C12.3083 9.67426 12.2165 9.89505 12.0328 10.0787C11.8492 10.2624 11.6284 10.3542 11.3705 10.3542H8.28784L7.39738 11.7125C7.351 11.7836 7.29034 11.8368 7.21538 11.872C7.14052 11.9071 7.06872 11.9247 6.99998 11.9247C6.93125 11.9247 6.85945 11.9071 6.78459 11.872C6.70963 11.8368 6.64896 11.7836 6.60259 11.7125L5.71213 10.3542H2.6295ZM6.99998 10.9342L7.89073 9.59585H11.3705C11.4229 9.59585 11.4659 9.57903 11.4995 9.54539C11.5332 9.51175 11.55 9.46873 11.55 9.41633V2.62954C11.55 2.57713 11.5332 2.53411 11.4995 2.50047C11.4659 2.46683 11.4229 2.45001 11.3705 2.45001H2.6295C2.5771 2.45001 2.53408 2.46683 2.50044 2.50047C2.4668 2.53411 2.44998 2.57713 2.44998 2.62954V9.41633C2.44998 9.46873 2.4668 9.51175 2.50044 9.54539C2.53408 9.57903 2.5771 9.59585 2.6295 9.59585H6.10923L6.99998 10.9342Z" fill="currentColor"/>
</g>
</svg>
