<svg width="14" height="14" viewBox="0 0 14 14" fill="none" xmlns="http://www.w3.org/2000/svg">
<mask id="mask0_2084_47" style="mask-type:alpha" maskUnits="userSpaceOnUse" x="0" y="0" width="14" height="14">
<rect width="14" height="14" fill="#D9D9D9"/>
</mask>
<g mask="url(#mask0_2084_47)">
<path d="M4.7699 6.69375C4.92847 6.37671 5.10478 6.06876 5.29884 5.76989C5.49289 5.47113 5.69798 5.17854 5.91411 4.89212L5.07279 4.77881C5.04285 4.77132 5.01388 4.77225 4.98588 4.78158C4.95778 4.79101 4.9325 4.80691 4.91004 4.82927L3.53134 6.20798C3.52015 6.21926 3.51641 6.23238 3.52011 6.24735C3.5239 6.26223 3.53328 6.27341 3.54825 6.28089L4.7699 6.69375ZM11.2313 2.58242C10.3549 2.62432 9.60364 2.8227 8.97763 3.17756C8.35171 3.53242 7.77402 3.97945 7.24454 4.51864C6.86382 4.89927 6.52763 5.29861 6.23596 5.71667C5.94429 6.13472 5.66872 6.59016 5.40923 7.08298L6.89119 8.57048C7.38401 8.31099 7.84037 8.03542 8.26027 7.74375C8.68017 7.45208 9.08049 7.11594 9.46121 6.73531C10.0004 6.19612 10.4547 5.59893 10.8242 4.94375C11.1936 4.28866 11.3896 3.55687 11.412 2.74837C11.412 2.72669 11.4075 2.70594 11.3985 2.6861C11.3895 2.66627 11.3772 2.64853 11.3616 2.63287C11.3458 2.6074 11.328 2.59262 11.3082 2.58854C11.2884 2.58446 11.2627 2.58242 11.2313 2.58242ZM7.995 6.00498C7.81699 5.82696 7.72798 5.61366 7.72798 5.36506C7.72798 5.11637 7.81699 4.90301 7.995 4.725C8.17302 4.54698 8.3854 4.45798 8.63215 4.45798C8.87899 4.45798 9.09138 4.54698 9.26929 4.725C9.44731 4.90301 9.53631 5.11637 9.53631 5.36506C9.53631 5.61366 9.44731 5.82696 9.26929 6.00498C9.09138 6.18299 8.87899 6.272 8.63215 6.272C8.3854 6.272 8.17302 6.18299 7.995 6.00498ZM7.295 9.23008L7.70786 10.4462C7.71534 10.4612 7.72652 10.4696 7.7414 10.4714C7.75637 10.4733 7.76949 10.4686 7.78077 10.4574L9.15948 9.08425C9.18184 9.06179 9.19774 9.03656 9.20717 9.00856C9.2165 8.98046 9.21742 8.95149 9.20994 8.92164L9.09663 8.08033C8.81021 8.29646 8.51762 8.50247 8.21886 8.69837C7.91999 8.89428 7.61204 9.07151 7.295 9.23008ZM12.158 2.3065C12.2432 3.269 12.0854 4.15853 11.6846 4.9751C11.2837 5.79177 10.7692 6.51423 10.1409 7.14248C10.0737 7.20975 10.0146 7.26789 9.96375 7.31689C9.9129 7.36589 9.8587 7.42403 9.80115 7.49131L9.95369 8.84639C9.96934 8.99301 9.95325 9.13476 9.90542 9.27164C9.85758 9.40844 9.78093 9.52471 9.67544 9.62048L7.84246 11.4535C7.72132 11.5649 7.58502 11.6045 7.43354 11.5725C7.28207 11.5403 7.18577 11.4509 7.14465 11.3043L6.49627 9.2626L4.74073 7.48679L2.68448 6.80925C2.53787 6.76812 2.4528 6.67187 2.42927 6.5205C2.40574 6.36903 2.44969 6.23758 2.56111 6.12617L4.3795 4.29319C4.48499 4.1877 4.60277 4.11196 4.73286 4.06598C4.86294 4.01999 5.00129 4.00482 5.1479 4.02048L6.50298 4.18775C6.57036 4.12037 6.63243 4.05976 6.68921 4.00589C6.74609 3.95213 6.80816 3.89156 6.87544 3.82419C7.50369 3.20575 8.22129 2.69271 9.02823 2.28506C9.83518 1.87751 10.715 1.72122 11.6678 1.81621C11.7381 1.82223 11.8001 1.84187 11.8539 1.87512C11.9078 1.90837 11.9571 1.94746 12.0021 1.99237C12.0469 2.03719 12.0826 2.08318 12.1091 2.13033C12.1356 2.17739 12.1519 2.23611 12.158 2.3065ZM2.94363 9.22906C3.18892 8.97405 3.48433 8.85568 3.82986 8.87396C4.17529 8.89233 4.47551 9.02903 4.73052 9.28404C4.97581 9.52933 5.10672 9.81983 5.12325 10.1555C5.13968 10.4913 5.02525 10.777 4.77996 11.0126C4.41353 11.3985 3.97117 11.6561 3.45288 11.7855C2.93459 11.9149 2.41294 12.0219 1.88794 12.1064C1.97252 11.5874 2.07801 11.0697 2.2044 10.5532C2.33079 10.0369 2.5772 9.59549 2.94363 9.22906ZM3.39236 9.86387C3.22329 10.0329 3.10866 10.2293 3.04848 10.4529C2.9883 10.6765 2.93089 10.902 2.87625 11.1293C3.10365 11.0747 3.3243 11.0155 3.53819 10.9515C3.75208 10.8875 3.94351 10.7711 4.11248 10.6021C4.23887 10.4951 4.30751 10.3624 4.3184 10.2038C4.32919 10.0452 4.28111 9.91248 4.17417 9.80554C4.06722 9.6986 3.9369 9.65241 3.78319 9.667C3.62958 9.68158 3.4993 9.74721 3.39236 9.86387Z" fill="currentColor"/>
</g>
</svg>
