<svg width="14" height="14" viewBox="0 0 14 14" fill="none" xmlns="http://www.w3.org/2000/svg">
<mask id="mask0_2084_56" style="mask-type:alpha" maskUnits="userSpaceOnUse" x="0" y="0" width="14" height="14">
<rect width="14" height="14" fill="#D9D9D9"/>
</mask>
<g mask="url(#mask0_2084_56)">
<path d="M3.32953 11.6084C3.06693 11.6084 2.84498 11.5177 2.66366 11.3364C2.48234 11.1551 2.39168 10.9331 2.39168 10.6705V3.32955C2.39168 3.06695 2.48234 2.84499 2.66366 2.66367C2.84498 2.48235 3.06693 2.39169 3.32953 2.39169H10.6705C10.9331 2.39169 11.155 2.48235 11.3364 2.66367C11.5177 2.84499 11.6083 3.06695 11.6083 3.32955V10.6705C11.6083 10.9331 11.5177 11.1551 11.3364 11.3364C11.155 11.5177 10.9331 11.6084 10.6705 11.6084H3.32953ZM3.32953 10.85H10.6705C10.7154 10.85 10.7565 10.8313 10.7939 10.7939C10.8313 10.7565 10.85 10.7154 10.85 10.6705V3.32955C10.85 3.28463 10.8313 3.24351 10.7939 3.20617C10.7565 3.16874 10.7154 3.15003 10.6705 3.15003H3.32953C3.28462 3.15003 3.24349 3.16874 3.20616 3.20617C3.16873 3.24351 3.15001 3.28463 3.15001 3.32955V10.6705C3.15001 10.7154 3.16873 10.7565 3.20616 10.7939C3.24349 10.8313 3.28462 10.85 3.32953 10.85ZM4.72501 9.65419H7.87501C7.98264 9.65419 8.07271 9.61817 8.14524 9.54613C8.21787 9.47419 8.25418 9.38484 8.25418 9.27809C8.25418 9.17134 8.21787 9.08097 8.14524 9.00699C8.07271 8.9329 7.98264 8.89586 7.87501 8.89586H4.72501C4.61739 8.89586 4.52731 8.93188 4.45478 9.00392C4.38216 9.07587 4.34584 9.16521 4.34584 9.27196C4.34584 9.37871 4.38216 9.46908 4.45478 9.54307C4.52731 9.61715 4.61739 9.65419 4.72501 9.65419ZM4.72501 7.37919H9.27501C9.38264 7.37919 9.47271 7.34317 9.54524 7.27113C9.61787 7.19919 9.65418 7.10984 9.65418 7.00309C9.65418 6.89634 9.61787 6.80597 9.54524 6.73199C9.47271 6.6579 9.38264 6.62086 9.27501 6.62086H4.72501C4.61739 6.62086 4.52731 6.65688 4.45478 6.72892C4.38216 6.80087 4.34584 6.89021 4.34584 6.99696C4.34584 7.10371 4.38216 7.19408 4.45478 7.26807C4.52731 7.34215 4.61739 7.37919 4.72501 7.37919ZM4.72501 5.10419H9.27501C9.38264 5.10419 9.47271 5.06817 9.54524 4.99613C9.61787 4.92419 9.65418 4.83484 9.65418 4.72809C9.65418 4.62134 9.61787 4.53097 9.54524 4.45698C9.47271 4.3829 9.38264 4.34586 9.27501 4.34586H4.72501C4.61739 4.34586 4.52731 4.38188 4.45478 4.45392C4.38216 4.52587 4.34584 4.61521 4.34584 4.72196C4.34584 4.82871 4.38216 4.91908 4.45478 4.99307C4.52731 5.06715 4.61739 5.10419 4.72501 5.10419Z" fill="currentColor"/>
</g>
</svg>
